<svg xmlns="http://www.w3.org/2000/svg" viewBox="0 0 452.942 70.024"><defs/><g fill="#fff"><path d="M.982 0H19.54l14.83 20.722L49.102 0h18.562L43.602 33.685l25.044 35.062H50.087l-15.714-22.1-15.812 22.1H0l25.04-35.062zM78.666 68.747L107.638 0h12.866l28.874 68.747h-16.2l-4.714-11.59H99.683l-4.715 11.59zm35.453-46.65l-8.642 21.114h17.285zM163.518 68.747V0h13.848l32.7 42.131V0h15.026v68.747h-13.843l-32.7-41.937v41.937zM297.182 68.747H241.89V56.766l33.293-42.426h-33V0h54.7v11.982l-33.294 42.426h33.593zM313.684 68.747V0h15.615v26.811h29.758V0h15.517v68.747h-15.521v-27.6h-29.758v27.6zM437.425 0h15.517v40.954a27.664 27.664 0 01-8.741 20.722c-5.794 5.6-13.062 8.348-21.7 8.348s-15.91-2.75-21.705-8.348a27.665 27.665 0 01-8.741-20.722V0h15.517v40.855a14.358 14.358 0 004.224 10.607 14.585 14.585 0 0010.7 4.223 14.6 14.6 0 0014.928-14.83z"/></g></svg>