<svg width="420" height="250" viewBox="0 0 420 250" fill="none" xmlns="http://www.w3.org/2000/svg">
<rect width="420" height="250" fill="white"/>
<rect x="60" y="70" width="163" height="33" rx="10" fill="black"/>
<path d="M84.1307 87.1136V91H82.8565V82.2727H84.1136V85.5199H84.1946C84.348 85.1676 84.5824 84.8878 84.8977 84.6804C85.2131 84.473 85.625 84.3693 86.1335 84.3693C86.5824 84.3693 86.9744 84.4616 87.3097 84.6463C87.6477 84.831 87.9091 85.1065 88.0938 85.473C88.2812 85.8366 88.375 86.2912 88.375 86.8366V91H87.1009V86.9901C87.1009 86.5099 86.9773 86.1378 86.7301 85.8736C86.483 85.6065 86.1392 85.473 85.6989 85.473C85.3977 85.473 85.1278 85.5369 84.8892 85.6648C84.6534 85.7926 84.4673 85.9801 84.331 86.2273C84.1974 86.4716 84.1307 86.767 84.1307 87.1136ZM93.1307 84.4545V85.4773H89.5554V84.4545H93.1307ZM90.5142 82.8864H91.7884V89.0781C91.7884 89.3253 91.8253 89.5114 91.8991 89.6364C91.973 89.7585 92.0682 89.8423 92.1847 89.8878C92.304 89.9304 92.4332 89.9517 92.5724 89.9517C92.6747 89.9517 92.7642 89.9446 92.8409 89.9304C92.9176 89.9162 92.9773 89.9048 93.0199 89.8963L93.25 90.9489C93.1761 90.9773 93.071 91.0057 92.9347 91.0341C92.7983 91.0653 92.6278 91.0824 92.4233 91.0852C92.0881 91.0909 91.7756 91.0312 91.4858 90.9062C91.196 90.7812 90.9616 90.5881 90.7827 90.3267C90.6037 90.0653 90.5142 89.7372 90.5142 89.3423V82.8864ZM97.5955 84.4545V85.4773H94.0202V84.4545H97.5955ZM94.979 82.8864H96.2532V89.0781C96.2532 89.3253 96.2901 89.5114 96.364 89.6364C96.4379 89.7585 96.533 89.8423 96.6495 89.8878C96.7688 89.9304 96.8981 89.9517 97.0373 89.9517C97.1396 89.9517 97.229 89.9446 97.3058 89.9304C97.3825 89.9162 97.4421 89.9048 97.4847 89.8963L97.7148 90.9489C97.641 90.9773 97.5359 91.0057 97.3995 91.0341C97.2631 91.0653 97.0927 91.0824 96.8881 91.0852C96.5529 91.0909 96.2404 91.0312 95.9506 90.9062C95.6609 90.7812 95.4265 90.5881 95.2475 90.3267C95.0685 90.0653 94.979 89.7372 94.979 89.3423V82.8864ZM99.005 93.4545V84.4545H100.249V85.5156H100.356C100.43 85.3793 100.536 85.2216 100.675 85.0426C100.815 84.8636 101.008 84.7074 101.255 84.5739C101.502 84.4375 101.829 84.3693 102.235 84.3693C102.763 84.3693 103.235 84.5028 103.65 84.7699C104.065 85.0369 104.39 85.4219 104.626 85.9247C104.864 86.4276 104.984 87.0327 104.984 87.7401C104.984 88.4474 104.866 89.054 104.63 89.5597C104.394 90.0625 104.07 90.4503 103.658 90.723C103.246 90.9929 102.776 91.1278 102.248 91.1278C101.85 91.1278 101.525 91.0611 101.272 90.9276C101.022 90.794 100.826 90.6378 100.684 90.4588C100.542 90.2798 100.433 90.1207 100.356 89.9815H100.279V93.4545H99.005ZM100.254 87.7273C100.254 88.1875 100.32 88.5909 100.454 88.9375C100.587 89.2841 100.781 89.5554 101.033 89.7514C101.286 89.9446 101.596 90.0412 101.962 90.0412C102.343 90.0412 102.661 89.9403 102.917 89.7386C103.173 89.5341 103.366 89.2571 103.496 88.9077C103.63 88.5582 103.697 88.1648 103.697 87.7273C103.697 87.2955 103.631 86.9077 103.501 86.5639C103.373 86.2202 103.18 85.9489 102.921 85.75C102.665 85.5511 102.346 85.4517 101.962 85.4517C101.593 85.4517 101.281 85.5469 101.025 85.7372C100.772 85.9276 100.58 86.1932 100.45 86.5341C100.319 86.875 100.254 87.2727 100.254 87.7273ZM111.316 86.0526L110.161 86.2571C110.113 86.1094 110.036 85.9687 109.931 85.8352C109.829 85.7017 109.69 85.5923 109.513 85.5071C109.337 85.4219 109.117 85.3793 108.853 85.3793C108.492 85.3793 108.191 85.4602 107.95 85.6222C107.708 85.7812 107.587 85.9872 107.587 86.2401C107.587 86.4588 107.668 86.6349 107.83 86.7685C107.992 86.902 108.254 87.0114 108.614 87.0966L109.654 87.3352C110.256 87.4744 110.705 87.6889 111.001 87.9787C111.296 88.2685 111.444 88.6449 111.444 89.108C111.444 89.5 111.33 89.8494 111.103 90.1562C110.879 90.4602 110.565 90.6989 110.161 90.8722C109.761 91.0455 109.296 91.1321 108.768 91.1321C108.035 91.1321 107.437 90.9759 106.974 90.6634C106.511 90.348 106.227 89.9006 106.121 89.321L107.353 89.1335C107.43 89.4545 107.587 89.6974 107.826 89.8622C108.065 90.0241 108.376 90.1051 108.759 90.1051C109.177 90.1051 109.511 90.0185 109.761 89.8452C110.011 89.669 110.136 89.4545 110.136 89.2017C110.136 88.9972 110.059 88.8253 109.906 88.6861C109.755 88.5469 109.523 88.4418 109.211 88.3707L108.103 88.1278C107.492 87.9886 107.04 87.767 106.748 87.4631C106.458 87.1591 106.313 86.7741 106.313 86.3082C106.313 85.9219 106.421 85.5838 106.637 85.294C106.853 85.0043 107.151 84.7784 107.532 84.6165C107.913 84.4517 108.349 84.3693 108.84 84.3693C109.548 84.3693 110.104 84.5227 110.511 84.8295C110.917 85.1335 111.185 85.5412 111.316 86.0526ZM113.684 91.081C113.451 91.081 113.251 90.9986 113.083 90.8338C112.916 90.6662 112.832 90.4645 112.832 90.2287C112.832 89.9957 112.916 89.7969 113.083 89.6321C113.251 89.4645 113.451 89.3807 113.684 89.3807C113.917 89.3807 114.118 89.4645 114.285 89.6321C114.453 89.7969 114.537 89.9957 114.537 90.2287C114.537 90.3849 114.497 90.5284 114.417 90.6591C114.341 90.7869 114.238 90.8892 114.11 90.9659C113.983 91.0426 113.841 91.081 113.684 91.081ZM113.684 86.3168C113.451 86.3168 113.251 86.233 113.083 86.0653C112.916 85.8977 112.832 85.6974 112.832 85.4645C112.832 85.2315 112.916 85.0327 113.083 84.8679C113.251 84.7003 113.451 84.6165 113.684 84.6165C113.917 84.6165 114.118 84.7003 114.285 84.8679C114.453 85.0327 114.537 85.2315 114.537 85.4645C114.537 85.6207 114.497 85.7642 114.417 85.8949C114.341 86.0227 114.238 86.125 114.11 86.2017C113.983 86.2784 113.841 86.3168 113.684 86.3168ZM119.567 81.8636L116.755 92.3125H115.617L118.429 81.8636H119.567ZM123.973 81.8636L121.161 92.3125H120.023L122.836 81.8636H123.973ZM126.33 87.1136V91H125.056V84.4545H126.279V85.5199H126.36C126.51 85.1733 126.746 84.8949 127.067 84.6847C127.391 84.4744 127.799 84.3693 128.29 84.3693C128.736 84.3693 129.127 84.4631 129.462 84.6506C129.797 84.8352 130.057 85.1108 130.242 85.4773C130.426 85.8437 130.519 86.2969 130.519 86.8366V91H129.245V86.9901C129.245 86.5156 129.121 86.1449 128.874 85.8778C128.627 85.608 128.287 85.473 127.855 85.473C127.56 85.473 127.297 85.5369 127.067 85.6648C126.84 85.7926 126.659 85.9801 126.526 86.2273C126.395 86.4716 126.33 86.767 126.33 87.1136ZM132.091 91V90.1264L135.637 85.6222V85.5625H132.206V84.4545H137.226V85.3835L133.817 89.8324V89.892H137.346V91H132.091ZM141.904 84.4545V85.4773H138.329V84.4545H141.904ZM139.288 82.8864H140.562V89.0781C140.562 89.3253 140.599 89.5114 140.673 89.6364C140.746 89.7585 140.842 89.8423 140.958 89.8878C141.077 89.9304 141.207 89.9517 141.346 89.9517C141.448 89.9517 141.538 89.9446 141.614 89.9304C141.691 89.9162 141.751 89.9048 141.793 89.8963L142.023 90.9489C141.95 90.9773 141.844 91.0057 141.708 91.0341C141.572 91.0653 141.401 91.0824 141.197 91.0852C140.862 91.0909 140.549 91.0312 140.259 90.9062C139.969 90.7812 139.735 90.5881 139.556 90.3267C139.377 90.0653 139.288 89.7372 139.288 89.3423V82.8864ZM145.218 91.1449C144.804 91.1449 144.429 91.0682 144.093 90.9148C143.758 90.7585 143.493 90.5327 143.297 90.2372C143.103 89.9418 143.007 89.5795 143.007 89.1506C143.007 88.7812 143.078 88.4773 143.22 88.2386C143.362 88 143.554 87.8111 143.795 87.6719C144.037 87.5327 144.306 87.4276 144.605 87.3565C144.903 87.2855 145.207 87.2315 145.517 87.1946C145.909 87.1491 146.227 87.1122 146.471 87.0838C146.716 87.0526 146.893 87.0028 147.004 86.9347C147.115 86.8665 147.17 86.7557 147.17 86.6023V86.5724C147.17 86.2003 147.065 85.9119 146.855 85.7074C146.647 85.5028 146.338 85.4006 145.926 85.4006C145.497 85.4006 145.159 85.4957 144.912 85.6861C144.667 85.8736 144.498 86.0824 144.404 86.3125L143.207 86.0398C143.349 85.642 143.556 85.321 143.829 85.0767C144.105 84.8295 144.422 84.6506 144.779 84.5398C145.137 84.4261 145.514 84.3693 145.909 84.3693C146.17 84.3693 146.447 84.4006 146.74 84.4631C147.035 84.5227 147.311 84.6335 147.566 84.7955C147.825 84.9574 148.037 85.1889 148.201 85.4901C148.366 85.7884 148.449 86.1761 148.449 86.6534V91H147.204V90.1051H147.153C147.071 90.2699 146.947 90.4318 146.782 90.5909C146.618 90.75 146.406 90.8821 146.147 90.9872C145.889 91.0923 145.579 91.1449 145.218 91.1449ZM145.495 90.1222C145.848 90.1222 146.149 90.0526 146.399 89.9134C146.652 89.7741 146.843 89.5923 146.974 89.3679C147.108 89.1406 147.174 88.8977 147.174 88.6392V87.7955C147.129 87.8409 147.041 87.8835 146.91 87.9233C146.782 87.9602 146.636 87.9929 146.471 88.0213C146.306 88.0469 146.146 88.071 145.99 88.0938C145.833 88.1136 145.703 88.1307 145.598 88.1449C145.35 88.1761 145.125 88.2287 144.92 88.3026C144.718 88.3764 144.556 88.483 144.434 88.6222C144.315 88.7585 144.255 88.9403 144.255 89.1676C144.255 89.483 144.372 89.7216 144.605 89.8835C144.838 90.0426 145.135 90.1222 145.495 90.1222ZM150.985 91.081C150.752 91.081 150.552 90.9986 150.384 90.8338C150.217 90.6662 150.133 90.4645 150.133 90.2287C150.133 89.9957 150.217 89.7969 150.384 89.6321C150.552 89.4645 150.752 89.3807 150.985 89.3807C151.218 89.3807 151.418 89.4645 151.586 89.6321C151.754 89.7969 151.837 89.9957 151.837 90.2287C151.837 90.3849 151.798 90.5284 151.718 90.6591C151.641 90.7869 151.539 90.8892 151.411 90.9659C151.283 91.0426 151.141 91.081 150.985 91.081Z" fill="white"/>
<path d="M155.449 91.1449C155.034 91.1449 154.659 91.0682 154.324 90.9148C153.989 90.7585 153.723 90.5327 153.527 90.2372C153.334 89.9418 153.237 89.5795 153.237 89.1506C153.237 88.7812 153.308 88.4773 153.45 88.2386C153.592 88 153.784 87.8111 154.026 87.6719C154.267 87.5327 154.537 87.4276 154.835 87.3565C155.134 87.2855 155.438 87.2315 155.747 87.1946C156.139 87.1491 156.457 87.1122 156.702 87.0838C156.946 87.0526 157.124 87.0028 157.234 86.9347C157.345 86.8665 157.401 86.7557 157.401 86.6023V86.5724C157.401 86.2003 157.295 85.9119 157.085 85.7074C156.878 85.5028 156.568 85.4006 156.156 85.4006C155.727 85.4006 155.389 85.4957 155.142 85.6861C154.898 85.8736 154.729 86.0824 154.635 86.3125L153.438 86.0398C153.58 85.642 153.787 85.321 154.06 85.0767C154.335 84.8295 154.652 84.6506 155.01 84.5398C155.368 84.4261 155.744 84.3693 156.139 84.3693C156.401 84.3693 156.678 84.4006 156.97 84.4631C157.266 84.5227 157.541 84.6335 157.797 84.7955C158.055 84.9574 158.267 85.1889 158.432 85.4901C158.597 85.7884 158.679 86.1761 158.679 86.6534V91H157.435V90.1051H157.384C157.301 90.2699 157.178 90.4318 157.013 90.5909C156.848 90.75 156.636 90.8821 156.378 90.9872C156.119 91.0923 155.81 91.1449 155.449 91.1449ZM155.726 90.1222C156.078 90.1222 156.379 90.0526 156.629 89.9134C156.882 89.7741 157.074 89.5923 157.205 89.3679C157.338 89.1406 157.405 88.8977 157.405 88.6392V87.7955C157.359 87.8409 157.271 87.8835 157.141 87.9233C157.013 87.9602 156.866 87.9929 156.702 88.0213C156.537 88.0469 156.376 88.071 156.22 88.0938C156.064 88.1136 155.933 88.1307 155.828 88.1449C155.581 88.1761 155.355 88.2287 155.151 88.3026C154.949 88.3764 154.787 88.483 154.665 88.6222C154.545 88.7585 154.486 88.9403 154.486 89.1676C154.486 89.483 154.602 89.7216 154.835 89.8835C155.068 90.0426 155.365 90.1222 155.726 90.1222ZM163.133 91.1321C162.52 91.1321 161.984 90.9915 161.527 90.7102C161.069 90.429 160.714 90.0355 160.461 89.5298C160.208 89.0241 160.082 88.4332 160.082 87.7571C160.082 87.0781 160.208 86.4844 160.461 85.9759C160.714 85.4673 161.069 85.0724 161.527 84.7912C161.984 84.5099 162.52 84.3693 163.133 84.3693C163.747 84.3693 164.282 84.5099 164.74 84.7912C165.197 85.0724 165.552 85.4673 165.805 85.9759C166.058 86.4844 166.184 87.0781 166.184 87.7571C166.184 88.4332 166.058 89.0241 165.805 89.5298C165.552 90.0355 165.197 90.429 164.74 90.7102C164.282 90.9915 163.747 91.1321 163.133 91.1321ZM163.137 90.0625C163.535 90.0625 163.865 89.9574 164.126 89.7472C164.387 89.5369 164.581 89.2571 164.706 88.9077C164.833 88.5582 164.897 88.1733 164.897 87.7528C164.897 87.3352 164.833 86.9517 164.706 86.6023C164.581 86.25 164.387 85.9673 164.126 85.7543C163.865 85.5412 163.535 85.4347 163.137 85.4347C162.737 85.4347 162.404 85.5412 162.14 85.7543C161.879 85.9673 161.684 86.25 161.556 86.6023C161.431 86.9517 161.369 87.3352 161.369 87.7528C161.369 88.1733 161.431 88.5582 161.556 88.9077C161.684 89.2571 161.879 89.5369 162.14 89.7472C162.404 89.9574 162.737 90.0625 163.137 90.0625ZM167.607 84.4545H168.881V91.4261C168.881 91.8636 168.801 92.233 168.642 92.5341C168.486 92.8352 168.253 93.0639 167.943 93.2202C167.636 93.3764 167.257 93.4545 166.805 93.4545C166.76 93.4545 166.717 93.4545 166.678 93.4545C166.635 93.4545 166.591 93.4531 166.545 93.4503V92.3551C166.585 92.3551 166.621 92.3551 166.652 92.3551C166.68 92.3551 166.713 92.3551 166.75 92.3551C167.051 92.3551 167.268 92.2741 167.402 92.1122C167.538 91.9531 167.607 91.7216 167.607 91.4176V84.4545ZM168.237 83.4446C168.016 83.4446 167.825 83.3707 167.666 83.223C167.51 83.0724 167.432 82.8935 167.432 82.6861C167.432 82.4759 167.51 82.2969 167.666 82.1491C167.825 81.9986 168.016 81.9233 168.237 81.9233C168.459 81.9233 168.648 81.9986 168.804 82.1491C168.963 82.2969 169.043 82.4759 169.043 82.6861C169.043 82.8935 168.963 83.0724 168.804 83.223C168.648 83.3707 168.459 83.4446 168.237 83.4446ZM170.595 91V84.4545H171.869V91H170.595ZM171.238 83.4446C171.017 83.4446 170.826 83.3707 170.667 83.223C170.511 83.0724 170.433 82.8935 170.433 82.6861C170.433 82.4759 170.511 82.2969 170.667 82.1491C170.826 81.9986 171.017 81.9233 171.238 81.9233C171.46 81.9233 171.649 81.9986 171.805 82.1491C171.964 82.2969 172.044 82.4759 172.044 82.6861C172.044 82.8935 171.964 83.0724 171.805 83.223C171.649 83.3707 171.46 83.4446 171.238 83.4446ZM177.729 88.2855V84.4545H179.008V91H177.755V89.8665H177.687C177.536 90.2159 177.295 90.5071 176.962 90.7401C176.633 90.9702 176.222 91.0852 175.731 91.0852C175.31 91.0852 174.938 90.9929 174.614 90.8082C174.293 90.6207 174.04 90.3438 173.856 89.9773C173.674 89.6108 173.583 89.1577 173.583 88.6179V84.4545H174.857V88.4645C174.857 88.9105 174.981 89.2656 175.228 89.5298C175.475 89.794 175.796 89.9261 176.191 89.9261C176.43 89.9261 176.667 89.8665 176.903 89.7472C177.141 89.6278 177.339 89.4474 177.495 89.206C177.654 88.9645 177.732 88.6577 177.729 88.2855ZM181.559 91.081C181.326 91.081 181.126 90.9986 180.958 90.8338C180.791 90.6662 180.707 90.4645 180.707 90.2287C180.707 89.9957 180.791 89.7969 180.958 89.6321C181.126 89.4645 181.326 89.3807 181.559 89.3807C181.792 89.3807 181.993 89.4645 182.16 89.6321C182.328 89.7969 182.412 89.9957 182.412 90.2287C182.412 90.3849 182.372 90.5284 182.292 90.6591C182.216 90.7869 182.113 90.8892 181.985 90.9659C181.858 91.0426 181.716 91.081 181.559 91.081ZM184.118 91V84.4545H185.392V91H184.118ZM184.762 83.4446C184.54 83.4446 184.35 83.3707 184.191 83.223C184.034 83.0724 183.956 82.8935 183.956 82.6861C183.956 82.4759 184.034 82.2969 184.191 82.1491C184.35 81.9986 184.54 81.9233 184.762 81.9233C184.983 81.9233 185.172 81.9986 185.328 82.1491C185.488 82.2969 185.567 82.4759 185.567 82.6861C185.567 82.8935 185.488 83.0724 185.328 83.223C185.172 83.3707 184.983 83.4446 184.762 83.4446ZM188.381 87.1136V91H187.107V84.4545H188.33V85.5199H188.411C188.561 85.1733 188.797 84.8949 189.118 84.6847C189.442 84.4744 189.849 84.3693 190.341 84.3693C190.787 84.3693 191.178 84.4631 191.513 84.6506C191.848 84.8352 192.108 85.1108 192.293 85.4773C192.477 85.8437 192.57 86.2969 192.57 86.8366V91H191.295V86.9901C191.295 86.5156 191.172 86.1449 190.925 85.8778C190.678 85.608 190.338 85.473 189.906 85.473C189.611 85.473 189.348 85.5369 189.118 85.6648C188.891 85.7926 188.71 85.9801 188.577 86.2273C188.446 86.4716 188.381 86.767 188.381 87.1136ZM195.45 88.7798L195.442 87.2244H195.663L198.271 84.4545H199.797L196.822 87.608H196.622L195.45 88.7798ZM194.278 91V82.2727H195.553V91H194.278ZM198.412 91L196.068 87.8892L196.946 86.9986L199.976 91H198.412Z" fill="#FF0000"/>
<path d="M245.372 83.3182C245.312 82.7109 245.044 82.228 244.568 81.8693C244.092 81.5107 243.494 81.3313 242.773 81.3313C242.265 81.3313 241.817 81.4183 241.43 81.5923C241.047 81.7663 240.745 82.0078 240.525 82.3168C240.308 82.6222 240.2 82.9702 240.2 83.3608C240.2 83.6484 240.262 83.9006 240.386 84.1172C240.511 84.3338 240.678 84.5202 240.887 84.6765C241.1 84.8292 241.335 84.9606 241.59 85.0707C241.849 85.1808 242.11 85.2731 242.373 85.3477L243.524 85.6779C243.872 85.7738 244.22 85.8963 244.568 86.0455C244.916 86.1946 245.234 86.3828 245.521 86.6101C245.813 86.8338 246.045 87.109 246.219 87.4357C246.397 87.7589 246.485 88.1477 246.485 88.6023C246.485 89.1847 246.335 89.7085 246.033 90.1737C245.731 90.6388 245.298 91.0082 244.733 91.2816C244.168 91.5515 243.492 91.6864 242.703 91.6864C241.961 91.6864 241.317 91.5639 240.77 91.3189C240.223 91.0703 239.793 90.7276 239.481 90.2908C239.168 89.854 238.993 89.348 238.953 88.7727H239.976C240.012 89.2024 240.154 89.5664 240.402 89.8647C240.651 90.163 240.974 90.3903 241.372 90.5465C241.77 90.6992 242.213 90.7756 242.703 90.7756C243.247 90.7756 243.73 90.685 244.152 90.5039C244.578 90.3192 244.912 90.0636 245.154 89.7369C245.399 89.4066 245.521 89.0231 245.521 88.5863C245.521 88.217 245.425 87.908 245.234 87.6594C245.042 87.4073 244.774 87.196 244.429 87.0256C244.088 86.8551 243.692 86.7042 243.241 86.5728L241.936 86.1893C241.081 85.9336 240.417 85.5803 239.944 85.1293C239.472 84.6783 239.236 84.103 239.236 83.4034C239.236 82.8175 239.392 82.3026 239.705 81.8587C240.021 81.4112 240.447 81.0632 240.983 80.8146C241.523 80.5625 242.128 80.4364 242.799 80.4364C243.478 80.4364 244.078 80.5607 244.6 80.8093C245.122 81.0579 245.536 81.4006 245.841 81.8374C246.15 82.2706 246.315 82.7642 246.336 83.3182H245.372ZM251.881 91.6705C251.15 91.6705 250.512 91.4876 249.969 91.1218C249.429 90.756 249.01 90.2553 248.712 89.6197C248.414 88.984 248.265 88.2596 248.265 87.4464C248.265 86.6261 248.415 85.8963 248.717 85.2571C249.023 84.6179 249.445 84.1172 249.985 83.755C250.525 83.3892 251.152 83.2063 251.865 83.2063C252.412 83.2063 252.908 83.3129 253.352 83.5259C253.795 83.7354 254.161 84.032 254.449 84.4155C254.74 84.7955 254.923 85.2393 254.998 85.7472H254.039C253.939 85.2855 253.7 84.8913 253.32 84.5646C252.943 84.2344 252.464 84.0692 251.881 84.0692C251.359 84.0692 250.898 84.2113 250.496 84.4954C250.095 84.7759 249.781 85.1683 249.554 85.6726C249.33 86.1733 249.218 86.7539 249.218 87.4144C249.218 88.0785 249.328 88.6662 249.548 89.1776C249.768 89.6854 250.077 90.0831 250.475 90.3707C250.876 90.6584 251.345 90.8022 251.881 90.8022C252.244 90.8022 252.574 90.7347 252.872 90.5998C253.174 90.4613 253.426 90.266 253.629 90.0138C253.835 89.7617 253.973 89.4616 254.044 89.1136H255.003C254.932 89.6072 254.756 90.0476 254.475 90.4347C254.199 90.8182 253.838 91.12 253.394 91.3402C252.954 91.5604 252.45 91.6705 251.881 91.6705ZM259.32 91.6864C258.827 91.6864 258.376 91.5906 257.967 91.3988C257.559 91.2035 257.234 90.9229 256.992 90.5572C256.751 90.1879 256.63 89.7404 256.63 89.2148C256.63 88.81 256.706 88.4691 256.859 88.1921C257.012 87.9151 257.229 87.6879 257.509 87.5103C257.79 87.3327 258.122 87.1925 258.505 87.0895C258.889 86.9865 259.311 86.9066 259.773 86.8498C260.231 86.793 260.618 86.7433 260.934 86.7006C261.254 86.658 261.497 86.5906 261.664 86.4982C261.831 86.4059 261.914 86.2567 261.914 86.0508V85.859C261.914 85.3015 261.747 84.8629 261.414 84.5433C261.083 84.2202 260.607 84.0586 259.986 84.0586C259.396 84.0586 258.915 84.1882 258.542 84.4474C258.173 84.7067 257.914 85.0121 257.765 85.3636L256.865 85.0387C257.049 84.5913 257.305 84.2344 257.632 83.968C257.958 83.6982 258.324 83.5046 258.729 83.3874C259.134 83.2667 259.544 83.2063 259.959 83.2063C260.272 83.2063 260.597 83.2472 260.934 83.3288C261.275 83.4105 261.591 83.5526 261.882 83.755C262.173 83.9538 262.41 84.2326 262.591 84.5913C262.772 84.9464 262.862 85.3974 262.862 85.9442V91.5H261.914V90.2056H261.856C261.742 90.4471 261.573 90.6815 261.35 90.9087C261.126 91.136 260.845 91.3224 260.508 91.468C260.171 91.6136 259.775 91.6864 259.32 91.6864ZM259.448 90.8182C259.952 90.8182 260.389 90.7063 260.758 90.4826C261.128 90.2589 261.412 89.9624 261.611 89.593C261.813 89.2202 261.914 88.81 261.914 88.3626V87.18C261.843 87.2475 261.724 87.3079 261.557 87.3612C261.394 87.4144 261.204 87.4624 260.987 87.505C260.774 87.544 260.561 87.5778 260.348 87.6062C260.135 87.6346 259.943 87.6594 259.773 87.6808C259.311 87.7376 258.917 87.8263 258.59 87.9471C258.264 88.0678 258.013 88.2347 257.839 88.4478C257.665 88.6573 257.578 88.9272 257.578 89.2575C257.578 89.7546 257.756 90.1399 258.111 90.4134C258.466 90.6832 258.912 90.8182 259.448 90.8182ZM265.385 91.5V83.3182H266.306V84.5753H266.391C266.555 84.1527 266.826 83.8207 267.206 83.5792C267.59 83.3342 268.05 83.2116 268.586 83.2116C269.151 83.2116 269.614 83.3448 269.976 83.6112C270.342 83.8739 270.615 84.2362 270.797 84.6978H270.866C271.05 84.2433 271.35 83.8828 271.766 83.6165C272.185 83.3466 272.693 83.2116 273.289 83.2116C274.049 83.2116 274.65 83.4513 275.09 83.9308C275.53 84.4066 275.75 85.1026 275.75 86.0188V91.5H274.802V86.0188C274.802 85.3725 274.637 84.8878 274.307 84.5646C273.977 84.2415 273.542 84.0799 273.002 84.0799C272.377 84.0799 271.896 84.2717 271.558 84.6552C271.221 85.0387 271.052 85.5252 271.052 86.1147V91.5H270.083V85.9336C270.083 85.3796 269.928 84.9322 269.619 84.5913C269.31 84.2504 268.875 84.0799 268.314 84.0799C267.938 84.0799 267.599 84.1722 267.297 84.3569C266.999 84.5415 266.762 84.799 266.588 85.1293C266.418 85.456 266.333 85.8324 266.333 86.2585V91.5H265.385Z" fill="black"/>
<path d="M293 78.5L310 94.5" stroke="#FF0000" stroke-width="6"/>
<path d="M310 78.5L293 94.5" stroke="#FF0000" stroke-width="6"/>
<rect x="60" y="148" width="164" height="33" rx="10" fill="black"/>
<path d="M74.1307 165.114V169H72.8565V160.273H74.1136V163.52H74.1946C74.348 163.168 74.5824 162.888 74.8977 162.68C75.2131 162.473 75.625 162.369 76.1335 162.369C76.5824 162.369 76.9744 162.462 77.3097 162.646C77.6477 162.831 77.9091 163.107 78.0938 163.473C78.2812 163.837 78.375 164.291 78.375 164.837V169H77.1009V164.99C77.1009 164.51 76.9773 164.138 76.7301 163.874C76.483 163.607 76.1392 163.473 75.6989 163.473C75.3977 163.473 75.1278 163.537 74.8892 163.665C74.6534 163.793 74.4673 163.98 74.331 164.227C74.1974 164.472 74.1307 164.767 74.1307 165.114ZM83.1307 162.455V163.477H79.5554V162.455H83.1307ZM80.5142 160.886H81.7884V167.078C81.7884 167.325 81.8253 167.511 81.8991 167.636C81.973 167.759 82.0682 167.842 82.1847 167.888C82.304 167.93 82.4332 167.952 82.5724 167.952C82.6747 167.952 82.7642 167.945 82.8409 167.93C82.9176 167.916 82.9773 167.905 83.0199 167.896L83.25 168.949C83.1761 168.977 83.071 169.006 82.9347 169.034C82.7983 169.065 82.6278 169.082 82.4233 169.085C82.0881 169.091 81.7756 169.031 81.4858 168.906C81.196 168.781 80.9616 168.588 80.7827 168.327C80.6037 168.065 80.5142 167.737 80.5142 167.342V160.886ZM87.5955 162.455V163.477H84.0202V162.455H87.5955ZM84.979 160.886H86.2532V167.078C86.2532 167.325 86.2901 167.511 86.364 167.636C86.4379 167.759 86.533 167.842 86.6495 167.888C86.7688 167.93 86.8981 167.952 87.0373 167.952C87.1396 167.952 87.229 167.945 87.3058 167.93C87.3825 167.916 87.4421 167.905 87.4847 167.896L87.7148 168.949C87.641 168.977 87.5359 169.006 87.3995 169.034C87.2631 169.065 87.0927 169.082 86.8881 169.085C86.5529 169.091 86.2404 169.031 85.9506 168.906C85.6609 168.781 85.4265 168.588 85.2475 168.327C85.0685 168.065 84.979 167.737 84.979 167.342V160.886ZM89.005 171.455V162.455H90.2493V163.516H90.3558C90.4297 163.379 90.5362 163.222 90.6754 163.043C90.8146 162.864 91.0078 162.707 91.255 162.574C91.5021 162.438 91.8288 162.369 92.2351 162.369C92.7635 162.369 93.2351 162.503 93.6499 162.77C94.0646 163.037 94.3899 163.422 94.6257 163.925C94.8643 164.428 94.9837 165.033 94.9837 165.74C94.9837 166.447 94.8658 167.054 94.63 167.56C94.3942 168.062 94.0703 168.45 93.6584 168.723C93.2464 168.993 92.7763 169.128 92.2479 169.128C91.8501 169.128 91.5249 169.061 91.272 168.928C91.022 168.794 90.826 168.638 90.6839 168.459C90.5419 168.28 90.4325 168.121 90.3558 167.982H90.2791V171.455H89.005ZM90.2536 165.727C90.2536 166.187 90.3203 166.591 90.4538 166.938C90.5874 167.284 90.7805 167.555 91.0334 167.751C91.2862 167.945 91.5959 168.041 91.9624 168.041C92.343 168.041 92.6612 167.94 92.9169 167.739C93.1726 167.534 93.3658 167.257 93.4964 166.908C93.63 166.558 93.6967 166.165 93.6967 165.727C93.6967 165.295 93.6314 164.908 93.5007 164.564C93.3729 164.22 93.1797 163.949 92.9212 163.75C92.6655 163.551 92.3459 163.452 91.9624 163.452C91.593 163.452 91.2805 163.547 91.0249 163.737C90.772 163.928 90.5803 164.193 90.4496 164.534C90.3189 164.875 90.2536 165.273 90.2536 165.727ZM101.316 164.053L100.161 164.257C100.113 164.109 100.036 163.969 99.9311 163.835C99.8288 163.702 99.6896 163.592 99.5135 163.507C99.3374 163.422 99.1172 163.379 98.853 163.379C98.4922 163.379 98.1911 163.46 97.9496 163.622C97.7081 163.781 97.5874 163.987 97.5874 164.24C97.5874 164.459 97.6683 164.635 97.8303 164.768C97.9922 164.902 98.2536 165.011 98.6143 165.097L99.6541 165.335C100.256 165.474 100.705 165.689 101.001 165.979C101.296 166.268 101.444 166.645 101.444 167.108C101.444 167.5 101.33 167.849 101.103 168.156C100.879 168.46 100.565 168.699 100.161 168.872C99.7607 169.045 99.2962 169.132 98.7678 169.132C98.0348 169.132 97.4368 168.976 96.9737 168.663C96.5107 168.348 96.2266 167.901 96.1214 167.321L97.353 167.134C97.4297 167.455 97.5874 167.697 97.826 167.862C98.0646 168.024 98.3757 168.105 98.7592 168.105C99.1768 168.105 99.5107 168.018 99.7607 167.845C100.011 167.669 100.136 167.455 100.136 167.202C100.136 166.997 100.059 166.825 99.9055 166.686C99.755 166.547 99.5234 166.442 99.2109 166.371L98.103 166.128C97.4922 165.989 97.0405 165.767 96.7479 165.463C96.4581 165.159 96.3132 164.774 96.3132 164.308C96.3132 163.922 96.4212 163.584 96.6371 163.294C96.853 163.004 97.1513 162.778 97.532 162.616C97.9126 162.452 98.3487 162.369 98.8402 162.369C99.5476 162.369 100.104 162.523 100.511 162.83C100.917 163.134 101.185 163.541 101.316 164.053ZM103.684 169.081C103.451 169.081 103.251 168.999 103.083 168.834C102.916 168.666 102.832 168.464 102.832 168.229C102.832 167.996 102.916 167.797 103.083 167.632C103.251 167.464 103.451 167.381 103.684 167.381C103.917 167.381 104.118 167.464 104.285 167.632C104.453 167.797 104.537 167.996 104.537 168.229C104.537 168.385 104.497 168.528 104.417 168.659C104.341 168.787 104.238 168.889 104.11 168.966C103.983 169.043 103.841 169.081 103.684 169.081ZM103.684 164.317C103.451 164.317 103.251 164.233 103.083 164.065C102.916 163.898 102.832 163.697 102.832 163.464C102.832 163.232 102.916 163.033 103.083 162.868C103.251 162.7 103.451 162.616 103.684 162.616C103.917 162.616 104.118 162.7 104.285 162.868C104.453 163.033 104.537 163.232 104.537 163.464C104.537 163.621 104.497 163.764 104.417 163.895C104.341 164.023 104.238 164.125 104.11 164.202C103.983 164.278 103.841 164.317 103.684 164.317ZM109.567 159.864L106.755 170.312H105.617L108.429 159.864H109.567ZM113.973 159.864L111.161 170.312H110.023L112.836 159.864H113.973ZM116.33 165.114V169H115.056V162.455H116.279V163.52H116.36C116.51 163.173 116.746 162.895 117.067 162.685C117.391 162.474 117.799 162.369 118.29 162.369C118.736 162.369 119.127 162.463 119.462 162.651C119.797 162.835 120.057 163.111 120.242 163.477C120.426 163.844 120.519 164.297 120.519 164.837V169H119.245V164.99C119.245 164.516 119.121 164.145 118.874 163.878C118.627 163.608 118.287 163.473 117.855 163.473C117.56 163.473 117.297 163.537 117.067 163.665C116.84 163.793 116.659 163.98 116.526 164.227C116.395 164.472 116.33 164.767 116.33 165.114ZM122.091 169V168.126L125.637 163.622V163.562H122.206V162.455H127.226V163.384L123.817 167.832V167.892H127.346V169H122.091ZM131.904 162.455V163.477H128.329V162.455H131.904ZM129.288 160.886H130.562V167.078C130.562 167.325 130.599 167.511 130.673 167.636C130.746 167.759 130.842 167.842 130.958 167.888C131.077 167.93 131.207 167.952 131.346 167.952C131.448 167.952 131.538 167.945 131.614 167.93C131.691 167.916 131.751 167.905 131.793 167.896L132.023 168.949C131.95 168.977 131.844 169.006 131.708 169.034C131.572 169.065 131.401 169.082 131.197 169.085C130.862 169.091 130.549 169.031 130.259 168.906C129.969 168.781 129.735 168.588 129.556 168.327C129.377 168.065 129.288 167.737 129.288 167.342V160.886ZM135.218 169.145C134.804 169.145 134.429 169.068 134.093 168.915C133.758 168.759 133.493 168.533 133.297 168.237C133.103 167.942 133.007 167.58 133.007 167.151C133.007 166.781 133.078 166.477 133.22 166.239C133.362 166 133.554 165.811 133.795 165.672C134.037 165.533 134.306 165.428 134.605 165.357C134.903 165.286 135.207 165.232 135.517 165.195C135.909 165.149 136.227 165.112 136.471 165.084C136.716 165.053 136.893 165.003 137.004 164.935C137.115 164.866 137.17 164.756 137.17 164.602V164.572C137.17 164.2 137.065 163.912 136.855 163.707C136.647 163.503 136.338 163.401 135.926 163.401C135.497 163.401 135.159 163.496 134.912 163.686C134.667 163.874 134.498 164.082 134.404 164.312L133.207 164.04C133.349 163.642 133.556 163.321 133.829 163.077C134.105 162.83 134.422 162.651 134.779 162.54C135.137 162.426 135.514 162.369 135.909 162.369C136.17 162.369 136.447 162.401 136.74 162.463C137.035 162.523 137.311 162.634 137.566 162.795C137.825 162.957 138.037 163.189 138.201 163.49C138.366 163.788 138.449 164.176 138.449 164.653V169H137.204V168.105H137.153C137.071 168.27 136.947 168.432 136.782 168.591C136.618 168.75 136.406 168.882 136.147 168.987C135.889 169.092 135.579 169.145 135.218 169.145ZM135.495 168.122C135.848 168.122 136.149 168.053 136.399 167.913C136.652 167.774 136.843 167.592 136.974 167.368C137.108 167.141 137.174 166.898 137.174 166.639V165.795C137.129 165.841 137.041 165.884 136.91 165.923C136.782 165.96 136.636 165.993 136.471 166.021C136.306 166.047 136.146 166.071 135.99 166.094C135.833 166.114 135.703 166.131 135.598 166.145C135.35 166.176 135.125 166.229 134.92 166.303C134.718 166.376 134.556 166.483 134.434 166.622C134.315 166.759 134.255 166.94 134.255 167.168C134.255 167.483 134.372 167.722 134.605 167.884C134.838 168.043 135.135 168.122 135.495 168.122Z" fill="white"/>
<path d="M140.985 169.081C140.752 169.081 140.552 168.999 140.384 168.834C140.217 168.666 140.133 168.464 140.133 168.229C140.133 167.996 140.217 167.797 140.384 167.632C140.552 167.464 140.752 167.381 140.985 167.381C141.218 167.381 141.418 167.464 141.586 167.632C141.754 167.797 141.837 167.996 141.837 168.229C141.837 168.385 141.798 168.528 141.718 168.659C141.641 168.787 141.539 168.889 141.411 168.966C141.283 169.043 141.141 169.081 140.985 169.081ZM146.288 171.591C145.768 171.591 145.321 171.523 144.946 171.386C144.574 171.25 144.27 171.07 144.034 170.845C143.798 170.621 143.622 170.375 143.506 170.108L144.601 169.656C144.678 169.781 144.78 169.913 144.908 170.053C145.038 170.195 145.214 170.315 145.436 170.415C145.661 170.514 145.949 170.564 146.301 170.564C146.784 170.564 147.183 170.446 147.499 170.21C147.814 169.977 147.972 169.605 147.972 169.094V167.807H147.891C147.814 167.946 147.703 168.101 147.558 168.271C147.416 168.442 147.22 168.589 146.97 168.714C146.72 168.839 146.395 168.902 145.994 168.902C145.477 168.902 145.011 168.781 144.597 168.54C144.185 168.295 143.858 167.936 143.616 167.462C143.378 166.984 143.259 166.398 143.259 165.702C143.259 165.006 143.376 164.409 143.612 163.912C143.851 163.415 144.178 163.034 144.592 162.77C145.007 162.503 145.477 162.369 146.003 162.369C146.409 162.369 146.737 162.438 146.987 162.574C147.237 162.707 147.432 162.864 147.571 163.043C147.713 163.222 147.822 163.379 147.899 163.516H147.993V162.455H149.241V169.145C149.241 169.707 149.111 170.169 148.849 170.53C148.588 170.891 148.234 171.158 147.788 171.331C147.345 171.504 146.845 171.591 146.288 171.591ZM146.276 167.845C146.642 167.845 146.952 167.76 147.205 167.589C147.46 167.416 147.653 167.169 147.784 166.848C147.918 166.524 147.984 166.136 147.984 165.685C147.984 165.244 147.919 164.857 147.788 164.521C147.658 164.186 147.466 163.925 147.213 163.737C146.96 163.547 146.648 163.452 146.276 163.452C145.892 163.452 145.572 163.551 145.317 163.75C145.061 163.946 144.868 164.213 144.737 164.551C144.609 164.889 144.545 165.267 144.545 165.685C144.545 166.114 144.611 166.49 144.741 166.814C144.872 167.138 145.065 167.391 145.321 167.572C145.58 167.754 145.898 167.845 146.276 167.845ZM153.707 169.132C153.094 169.132 152.558 168.991 152.101 168.71C151.643 168.429 151.288 168.036 151.036 167.53C150.783 167.024 150.656 166.433 150.656 165.757C150.656 165.078 150.783 164.484 151.036 163.976C151.288 163.467 151.643 163.072 152.101 162.791C152.558 162.51 153.094 162.369 153.707 162.369C154.321 162.369 154.857 162.51 155.314 162.791C155.771 163.072 156.126 163.467 156.379 163.976C156.632 164.484 156.759 165.078 156.759 165.757C156.759 166.433 156.632 167.024 156.379 167.53C156.126 168.036 155.771 168.429 155.314 168.71C154.857 168.991 154.321 169.132 153.707 169.132ZM153.712 168.062C154.109 168.062 154.439 167.957 154.7 167.747C154.962 167.537 155.155 167.257 155.28 166.908C155.408 166.558 155.472 166.173 155.472 165.753C155.472 165.335 155.408 164.952 155.28 164.602C155.155 164.25 154.962 163.967 154.7 163.754C154.439 163.541 154.109 163.435 153.712 163.435C153.311 163.435 152.979 163.541 152.714 163.754C152.453 163.967 152.259 164.25 152.131 164.602C152.006 164.952 151.943 165.335 151.943 165.753C151.943 166.173 152.006 166.558 152.131 166.908C152.259 167.257 152.453 167.537 152.714 167.747C152.979 167.957 153.311 168.062 153.712 168.062ZM163.558 162.455L161.184 169H159.82L157.442 162.455H158.81L160.468 167.491H160.536L162.19 162.455H163.558ZM167.81 162.455V163.477H164.235V162.455H167.81ZM165.194 160.886H166.468V167.078C166.468 167.325 166.505 167.511 166.579 167.636C166.653 167.759 166.748 167.842 166.864 167.888C166.984 167.93 167.113 167.952 167.252 167.952C167.354 167.952 167.444 167.945 167.521 167.93C167.597 167.916 167.657 167.905 167.7 167.896L167.93 168.949C167.856 168.977 167.751 169.006 167.614 169.034C167.478 169.065 167.308 169.082 167.103 169.085C166.768 169.091 166.455 169.031 166.165 168.906C165.876 168.781 165.641 168.588 165.462 168.327C165.283 168.065 165.194 167.737 165.194 167.342V160.886ZM170.059 169.081C169.826 169.081 169.626 168.999 169.458 168.834C169.291 168.666 169.207 168.464 169.207 168.229C169.207 167.996 169.291 167.797 169.458 167.632C169.626 167.464 169.826 167.381 170.059 167.381C170.292 167.381 170.493 167.464 170.66 167.632C170.828 167.797 170.912 167.996 170.912 168.229C170.912 168.385 170.872 168.528 170.792 168.659C170.716 168.787 170.613 168.889 170.485 168.966C170.358 169.043 170.216 169.081 170.059 169.081ZM173.892 165.114V169H172.618V162.455H173.841V163.52H173.922C174.073 163.173 174.309 162.895 174.63 162.685C174.953 162.474 175.361 162.369 175.853 162.369C176.299 162.369 176.689 162.463 177.025 162.651C177.36 162.835 177.62 163.111 177.804 163.477C177.989 163.844 178.081 164.297 178.081 164.837V169H176.807V164.99C176.807 164.516 176.684 164.145 176.436 163.878C176.189 163.608 175.85 163.473 175.418 163.473C175.123 163.473 174.86 163.537 174.63 163.665C174.402 163.793 174.222 163.98 174.088 164.227C173.958 164.472 173.892 164.767 173.892 165.114ZM179.654 169V168.126L183.199 163.622V163.562H179.769V162.455H184.789V163.384L181.38 167.832V167.892H184.908V169H179.654ZM189.735 159.864L186.923 170.312H185.785L188.597 159.864H189.735Z" fill="#12D202"/>
<path d="M240.449 169.5V158.591H241.445V168.605H246.644V169.5H240.449ZM251.997 169.67C251.234 169.67 250.573 169.493 250.016 169.138C249.458 168.779 249.027 168.284 248.721 167.652C248.419 167.016 248.268 166.284 248.268 165.457C248.268 164.633 248.419 163.902 248.721 163.262C249.027 162.62 249.447 162.117 249.984 161.755C250.523 161.389 251.147 161.206 251.853 161.206C252.297 161.206 252.725 161.288 253.137 161.451C253.549 161.611 253.918 161.858 254.245 162.192C254.575 162.522 254.836 162.939 255.028 163.444C255.22 163.944 255.316 164.537 255.316 165.223V165.691H248.924V164.855H254.346C254.346 164.33 254.24 163.857 254.027 163.438C253.817 163.016 253.524 162.682 253.148 162.437C252.775 162.192 252.343 162.069 251.853 162.069C251.335 162.069 250.879 162.208 250.484 162.485C250.09 162.762 249.781 163.127 249.558 163.582C249.337 164.037 249.225 164.534 249.222 165.074V165.574C249.222 166.224 249.334 166.792 249.558 167.279C249.785 167.762 250.106 168.136 250.522 168.403C250.937 168.669 251.429 168.802 251.997 168.802C252.384 168.802 252.723 168.742 253.015 168.621C253.309 168.5 253.556 168.339 253.755 168.136C253.957 167.93 254.11 167.705 254.213 167.46L255.113 167.753C254.989 168.097 254.785 168.415 254.501 168.706C254.22 168.998 253.869 169.232 253.446 169.409C253.027 169.583 252.544 169.67 251.997 169.67ZM260.527 172.739C259.969 172.739 259.481 172.666 259.062 172.52C258.643 172.378 258.289 172.183 258.002 171.934C257.714 171.686 257.49 171.407 257.331 171.098L258.108 170.587C258.225 170.793 258.382 170.995 258.577 171.194C258.776 171.393 259.033 171.558 259.349 171.689C259.669 171.821 260.061 171.886 260.527 171.886C261.251 171.886 261.835 171.705 262.279 171.343C262.726 170.981 262.95 170.418 262.95 169.654V167.811H262.865C262.755 168.06 262.597 168.309 262.391 168.557C262.185 168.802 261.915 169.006 261.581 169.17C261.251 169.333 260.841 169.415 260.351 169.415C259.697 169.415 259.117 169.253 258.609 168.93C258.105 168.607 257.707 168.145 257.416 167.545C257.128 166.941 256.984 166.222 256.984 165.388C256.984 164.56 257.125 163.832 257.405 163.204C257.689 162.575 258.085 162.085 258.593 161.734C259.101 161.382 259.692 161.206 260.367 161.206C260.867 161.206 261.283 161.295 261.613 161.473C261.943 161.647 262.208 161.863 262.407 162.123C262.609 162.382 262.767 162.634 262.881 162.879H262.977V161.318H263.904V169.713C263.904 170.406 263.756 170.975 263.462 171.423C263.167 171.87 262.766 172.201 262.258 172.414C261.75 172.63 261.173 172.739 260.527 172.739ZM260.463 168.547C260.988 168.547 261.437 168.42 261.81 168.168C262.183 167.913 262.469 167.547 262.668 167.071C262.867 166.595 262.966 166.029 262.966 165.372C262.966 164.733 262.869 164.166 262.673 163.673C262.478 163.175 262.194 162.785 261.821 162.501C261.452 162.213 260.999 162.069 260.463 162.069C259.916 162.069 259.454 162.217 259.078 162.511C258.701 162.806 258.417 163.204 258.225 163.705C258.034 164.202 257.938 164.757 257.938 165.372C257.938 165.997 258.035 166.549 258.231 167.028C258.426 167.504 258.712 167.877 259.088 168.147C259.465 168.413 259.923 168.547 260.463 168.547ZM266.425 169.5V161.318H267.378V169.5H266.425ZM266.909 159.912C266.714 159.912 266.547 159.846 266.409 159.715C266.27 159.58 266.201 159.418 266.201 159.23C266.201 159.042 266.27 158.882 266.409 158.751C266.547 158.616 266.714 158.548 266.909 158.548C267.105 158.548 267.271 158.616 267.41 158.751C267.548 158.882 267.618 159.042 267.618 159.23C267.618 159.418 267.548 159.58 267.41 159.715C267.271 159.846 267.105 159.912 266.909 159.912ZM273.108 161.318V162.144H269.204V161.318H273.108ZM270.424 159.358H271.377V167.364C271.377 167.705 271.436 167.973 271.553 168.168C271.67 168.36 271.823 168.497 272.011 168.578C272.199 168.657 272.4 168.696 272.613 168.696C272.737 168.696 272.844 168.689 272.932 168.674C273.021 168.657 273.099 168.639 273.167 168.621L273.369 169.479C273.277 169.514 273.163 169.546 273.028 169.575C272.893 169.607 272.726 169.623 272.528 169.623C272.18 169.623 271.844 169.546 271.521 169.393C271.201 169.241 270.938 169.013 270.733 168.712C270.527 168.41 270.424 168.035 270.424 167.588V159.358ZM275.272 169.5V161.318H276.226V169.5H275.272ZM275.757 159.912C275.562 159.912 275.395 159.846 275.256 159.715C275.118 159.58 275.048 159.418 275.048 159.23C275.048 159.042 275.118 158.882 275.256 158.751C275.395 158.616 275.562 158.548 275.757 158.548C275.952 158.548 276.119 158.616 276.258 158.751C276.396 158.882 276.465 159.042 276.465 159.23C276.465 159.418 276.396 159.58 276.258 159.715C276.119 159.846 275.952 159.912 275.757 159.912ZM278.733 169.5V161.318H279.655V162.575H279.74C279.903 162.153 280.175 161.821 280.555 161.579C280.938 161.334 281.398 161.212 281.935 161.212C282.499 161.212 282.963 161.345 283.325 161.611C283.691 161.874 283.964 162.236 284.145 162.698H284.214C284.399 162.243 284.699 161.883 285.115 161.616C285.534 161.347 286.041 161.212 286.638 161.212C287.398 161.212 287.998 161.451 288.438 161.931C288.879 162.407 289.099 163.103 289.099 164.019V169.5H288.151V164.019C288.151 163.373 287.986 162.888 287.655 162.565C287.325 162.241 286.89 162.08 286.35 162.08C285.725 162.08 285.244 162.272 284.907 162.655C284.57 163.039 284.401 163.525 284.401 164.115V169.5H283.431V163.934C283.431 163.38 283.277 162.932 282.968 162.591C282.659 162.25 282.224 162.08 281.663 162.08C281.286 162.08 280.947 162.172 280.646 162.357C280.347 162.542 280.111 162.799 279.937 163.129C279.767 163.456 279.681 163.832 279.681 164.259V169.5H278.733ZM293.894 169.686C293.401 169.686 292.95 169.591 292.541 169.399C292.133 169.203 291.808 168.923 291.567 168.557C291.325 168.188 291.204 167.74 291.204 167.215C291.204 166.81 291.281 166.469 291.433 166.192C291.586 165.915 291.803 165.688 292.083 165.51C292.364 165.333 292.696 165.192 293.079 165.089C293.463 164.987 293.885 164.907 294.347 164.85C294.805 164.793 295.192 164.743 295.508 164.701C295.828 164.658 296.071 164.591 296.238 164.498C296.405 164.406 296.488 164.257 296.488 164.051V163.859C296.488 163.301 296.322 162.863 295.988 162.543C295.657 162.22 295.182 162.059 294.56 162.059C293.971 162.059 293.49 162.188 293.117 162.447C292.747 162.707 292.488 163.012 292.339 163.364L291.439 163.039C291.623 162.591 291.879 162.234 292.206 161.968C292.532 161.698 292.898 161.505 293.303 161.387C293.708 161.267 294.118 161.206 294.534 161.206C294.846 161.206 295.171 161.247 295.508 161.329C295.849 161.411 296.165 161.553 296.456 161.755C296.748 161.954 296.984 162.233 297.165 162.591C297.346 162.946 297.437 163.397 297.437 163.944V169.5H296.488V168.206H296.43C296.316 168.447 296.148 168.681 295.924 168.909C295.7 169.136 295.42 169.322 295.082 169.468C294.745 169.614 294.349 169.686 293.894 169.686ZM294.022 168.818C294.526 168.818 294.963 168.706 295.333 168.483C295.702 168.259 295.986 167.962 296.185 167.593C296.387 167.22 296.488 166.81 296.488 166.363V165.18C296.417 165.248 296.298 165.308 296.132 165.361C295.968 165.414 295.778 165.462 295.562 165.505C295.349 165.544 295.135 165.578 294.922 165.606C294.709 165.635 294.518 165.659 294.347 165.681C293.885 165.738 293.491 165.826 293.165 165.947C292.838 166.068 292.588 166.235 292.414 166.448C292.24 166.657 292.153 166.927 292.153 167.257C292.153 167.755 292.33 168.14 292.685 168.413C293.04 168.683 293.486 168.818 294.022 168.818ZM303.181 161.318V162.144H299.277V161.318H303.181ZM300.497 159.358H301.45V167.364C301.45 167.705 301.509 167.973 301.626 168.168C301.743 168.36 301.896 168.497 302.084 168.578C302.272 168.657 302.473 168.696 302.686 168.696C302.81 168.696 302.917 168.689 303.006 168.674C303.094 168.657 303.173 168.639 303.24 168.621L303.442 169.479C303.35 169.514 303.237 169.546 303.102 169.575C302.967 169.607 302.8 169.623 302.601 169.623C302.253 169.623 301.917 169.546 301.594 169.393C301.275 169.241 301.012 169.013 300.806 168.712C300.6 168.41 300.497 168.035 300.497 167.588V159.358ZM308.555 169.67C307.791 169.67 307.131 169.493 306.573 169.138C306.016 168.779 305.584 168.284 305.279 167.652C304.977 167.016 304.826 166.284 304.826 165.457C304.826 164.633 304.977 163.902 305.279 163.262C305.584 162.62 306.005 162.117 306.541 161.755C307.081 161.389 307.704 161.206 308.411 161.206C308.855 161.206 309.283 161.288 309.695 161.451C310.107 161.611 310.476 161.858 310.803 162.192C311.133 162.522 311.394 162.939 311.586 163.444C311.777 163.944 311.873 164.537 311.873 165.223V165.691H305.481V164.855H310.904C310.904 164.33 310.797 163.857 310.584 163.438C310.375 163.016 310.082 162.682 309.705 162.437C309.332 162.192 308.901 162.069 308.411 162.069C307.892 162.069 307.436 162.208 307.042 162.485C306.648 162.762 306.339 163.127 306.115 163.582C305.895 164.037 305.783 164.534 305.78 165.074V165.574C305.78 166.224 305.891 166.792 306.115 167.279C306.342 167.762 306.664 168.136 307.079 168.403C307.495 168.669 307.987 168.802 308.555 168.802C308.942 168.802 309.281 168.742 309.572 168.621C309.867 168.5 310.114 168.339 310.313 168.136C310.515 167.93 310.668 167.705 310.771 167.46L311.671 167.753C311.547 168.097 311.342 168.415 311.058 168.706C310.778 168.998 310.426 169.232 310.004 169.409C309.585 169.583 309.102 169.67 308.555 169.67Z" fill="black"/>
<path d="M328 164.5L336 172.5" stroke="#12D202" stroke-width="6"/>
<path d="M349 156.5L332 172.5" stroke="#12D202" stroke-width="6"/>
</svg>
