<svg xmlns="http://www.w3.org/2000/svg" fill="none" viewBox="0 0 79 79">
<style>
  path {
    fill: #000000;
  }
  @media (prefers-color-scheme: dark) {
    path { fill: #ffffff; }
  }
</style>
<path d="M40.288 30.197a.51.51 0 0 1-.502.043L16.328 11.662c-.437-.315-.992-.53-1.597-.618a4.228 4.228 0 0 0-1.8.128c-.57.17-1.058.46-1.4.832-.344.371-.529.808-.53 1.255v15.765a3.885 3.885 0 0 0 .533 1.954c.355.619.875 1.18 1.53 1.653l11.267 8.168-11.77 8.548c-.495.356-.886.78-1.155 1.247A2.95 2.95 0 0 0 11 52.066V67.83c0 .198.083.391.235.555.152.166.367.294.62.37.252.075.53.094.797.056.268-.039.514-.133.707-.273L38.39 50.384c.398-.286.938-.447 1.5-.447s1.102.16 1.5.447L66.64 68.708c.194.14.44.235.707.273.267.038.545.018.798-.057.252-.075.467-.204.62-.368A.825.825 0 0 0 69 68V52.233a2.95 2.95 0 0 0-.406-1.473 4.039 4.039 0 0 0-1.155-1.247l-11.886-8.625 11.379-8.256c.654-.473 1.173-1.035 1.526-1.654a3.888 3.888 0 0 0 .53-1.953V13.26c-.004-.45-.193-.89-.542-1.262-.35-.372-.845-.66-1.42-.827a4.237 4.237 0 0 0-1.815-.11c-.607.094-1.162.317-1.592.641L40.288 30.197Zm-24.779.653a2.681 2.681 0 0 1-.778-.836c-.176-.3-.27-.641-.27-.99v-15.11L36.899 31.68l-10.12 7.345-11.27-8.176Zm50.006-1.825c.003.339-.086.674-.263.988-.192.33-.454.616-.767.837l-11.389 8.258-10.098-7.34 22.527-17.854-.01 15.11Z"/></svg>