<svg width="268" height="268" viewBox="0 0 268 268" fill="none" xmlns="http://www.w3.org/2000/svg">
<g clip-path="url(#clip0_608_107)">
<circle cx="134" cy="134" r="134" fill="black"/>
<path d="M135.348 104.593C135.143 104.746 134.897 104.837 134.642 104.855C134.377 104.88 134.111 104.834 133.87 104.722L64.7044 49.9516C63.4177 49.0203 61.7798 48.3866 59.9977 48.1293C58.2217 47.8715 56.4109 48.0002 54.6891 48.5065C53.0093 49.0111 51.5734 49.8644 50.5608 50.9583C49.5483 52.0539 49.0059 53.3414 49 54.6599V101.141C48.9942 103.117 49.5281 105.075 50.5734 106.9C51.6179 108.725 53.1518 110.381 55.0856 111.773L88.2999 135.855L53.602 161.055C52.1443 162.106 50.9875 163.355 50.1987 164.731C49.4083 166.107 49.0009 167.583 49 169.074V215.55C49.0034 216.134 49.244 216.704 49.6924 217.189C50.1409 217.674 50.7763 218.051 51.5198 218.274C52.282 218.499 53.0837 218.556 53.8702 218.442C54.659 218.329 55.384 218.049 55.9549 217.637L129.751 164.115C130.928 163.267 132.518 162.792 134.175 162.792C135.832 162.792 137.422 163.267 138.599 164.115L213.045 218.138C213.616 218.55 214.341 218.83 215.13 218.943C215.916 219.057 216.718 218.999 217.48 218.775C218.224 218.552 218.859 218.174 219.308 217.689C219.756 217.205 219.997 216.635 220 216.052V169.562C219.998 168.072 219.592 166.597 218.801 165.221C218.012 163.846 216.855 162.597 215.398 161.547L180.355 136.117L213.903 111.773C215.832 110.38 217.362 108.723 218.403 106.898C219.443 105.073 219.975 103.116 219.966 101.141V54.6599C219.954 53.3322 219.396 52.0371 218.366 50.9407C217.335 49.8426 215.877 48.9944 214.178 48.5015C212.439 48.0062 210.613 47.8944 208.827 48.1737C207.038 48.4529 205.405 49.1125 204.135 50.0681L135.348 104.593ZM62.2936 106.522C61.3112 105.82 60.5316 104.981 60.001 104.058C59.4704 103.134 59.1997 102.142 59.2047 101.141V56.5887L125.357 108.972L95.5196 130.624L62.2936 106.522ZM209.727 101.141C209.736 102.139 209.473 103.129 208.951 104.053C208.43 104.976 207.66 105.815 206.689 106.522L173.112 130.867L143.338 109.227L209.755 56.5887L209.727 101.141Z" fill="white"/>
</g>
<defs>
<clipPath id="clip0_608_107">
<rect width="268" height="268" fill="white"/>
</clipPath>
</defs>
</svg>