<svg width="268" height="268" xmlns="http://www.w3.org/2000/svg">
<style>
    path { fill: #0F0F0F; }
    @media (prefers-color-scheme: dark) {
      path { fill: #FDFDFD; }
    }
</style>
<path d="M135.012 99.514a1.598 1.598 0 01-.843.312 1.791 1.791 0 01-.92-.158L50.735 34.327c-1.535-1.111-3.489-1.867-5.615-2.174a14.874 14.874 0 00-6.333.45c-2.004.602-3.717 1.62-4.925 2.925-1.208 1.307-1.855 2.843-1.862 4.416v55.452c-.007 2.357.63 4.693 1.877 6.87 1.246 2.177 3.076 4.153 5.383 5.813l39.624 28.73-41.394 30.063c-1.739 1.254-3.119 2.744-4.06 4.386-.943 1.642-1.429 3.402-1.43 5.181v55.446c.004.696.291 1.376.826 1.955.535.578 1.293 1.028 2.18 1.294a6.58 6.58 0 002.804.201c.941-.135 1.806-.469 2.487-.96l88.038-63.852c1.404-1.011 3.3-1.578 5.277-1.578 1.977 0 3.874.567 5.278 1.578l88.813 64.449c.681.492 1.546.826 2.487.961a6.597 6.597 0 002.804-.201c.887-.266 1.645-.717 2.18-1.295.535-.578.822-1.258.826-1.954v-55.462c-.002-1.777-.487-3.537-1.43-5.178-.942-1.641-2.322-3.131-4.06-4.383l-41.806-30.338 40.022-29.043c2.302-1.661 4.127-3.638 5.369-5.815 1.241-2.178 1.875-4.512 1.864-6.868V39.944c-.014-1.584-.679-3.129-1.908-4.437-1.23-1.31-2.97-2.322-4.997-2.91a14.898 14.898 0 00-6.383-.391c-2.134.333-4.083 1.12-5.598 2.26l-82.061 65.048zm-87.153 2.301c-1.172-.838-2.102-1.838-2.735-2.94-.633-1.102-.956-2.285-.95-3.48v-53.15l78.918 62.493-35.595 25.831-39.638-28.754zm175.885-6.42c.011 1.191-.303 2.372-.925 3.474-.622 1.102-1.54 2.103-2.699 2.946l-40.056 29.043-35.52-25.816 79.234-62.797-.034 53.15z"/>
</svg>