<svg viewBox="0 0 22 22" class="fill-current" xmlns="http://www.w3.org/2000/svg"><path d="M11 15.583a5.5 5.5 0 110-11 5.5 5.5 0 010 11zm0-1.833a3.667 3.667 0 100-7.334 3.667 3.667 0 000 7.334zM10.083 0h1.834v2.75h-1.834V0zm0 17.417h1.834v2.75h-1.834v-2.75zM3.222 3.602l1.296-1.297L6.462 4.25 5.166 5.546 3.222 3.602zm12.316 12.315l1.296-1.296 1.944 1.944-1.296 1.296-1.944-1.944zm1.944-13.613l1.296 1.298-1.944 1.944-1.296-1.296 1.944-1.945zM5.166 14.621l1.296 1.296-1.944 1.944-1.296-1.296 1.944-1.944zm15.917-5.454V11h-2.75V9.167h2.75zm-17.416 0V11H.917V9.167h2.75z"/></svg>