<svg width="28" height="28" fill="currentColor" xmlns="http://www.w3.org/2000/svg">
<path d="M7.84023 2.23999C4.75389 2.23999 2.24023 4.75364 2.24023 7.83999V20.16C2.24023 23.2463 4.75389 25.76 7.84023 25.76H20.1602C23.2466 25.76 25.7602 23.2463 25.7602 20.16V7.83999C25.7602 4.75364 23.2466 2.23999 20.1602 2.23999H7.84023ZM14.0002 5.03999C18.9394 5.03999 22.9602 9.06079 22.9602 14C22.9602 14.2632 22.9487 14.5211 22.9263 14.7787C22.5903 14.6387 22.2266 14.56 21.8402 14.56H14.5602V21.7448C14.7898 21.6776 15.0134 21.5656 15.2318 21.42C15.7022 21.9688 16.3798 22.3331 17.147 22.3891C16.167 22.7587 15.109 22.96 14.0002 22.96C9.06103 22.96 5.04023 18.9392 5.04023 14C5.04023 13.9216 5.0401 13.8431 5.0457 13.7703C5.1129 14.4255 5.60605 14.9637 6.24445 15.0981C6.45725 16.6213 7.11232 18.0043 8.06992 19.1187C8.53472 18.7995 9.02774 18.5194 9.55414 18.2842C9.22374 17.1698 9.02144 15.9096 8.97664 14.56H7.74508L8.86508 13.44H13.4402V6.25515C13.2106 6.32235 12.9871 6.43439 12.7687 6.57999C12.2983 6.03119 11.6207 5.66693 10.8535 5.61093C11.8335 5.24133 12.8914 5.03999 14.0002 5.03999ZM14.5602 6.25515V9.49812C14.9886 9.47572 15.4104 9.42951 15.8213 9.35812C16.2322 9.28672 16.6326 9.18928 17.019 9.06608C16.8664 8.69508 16.6966 8.3527 16.5137 8.04233C16.4222 7.88715 16.3274 7.73984 16.2293 7.60155C16.1312 7.46327 16.0305 7.3335 15.9263 7.21327C15.8222 7.09305 15.7154 6.98287 15.6059 6.88186C15.4964 6.78086 15.3843 6.68906 15.2701 6.60843C15.1558 6.5278 15.0384 6.45752 14.9201 6.39843C14.8017 6.33933 14.682 6.29155 14.5602 6.25515ZM6.16023 6.71999H10.6402C11.5698 6.71999 12.3202 7.47039 12.3202 8.39999V10.64C12.3202 11.5696 11.5698 12.32 10.6402 12.32H8.40023L6.82633 13.8939C6.57993 14.1403 6.16023 13.9611 6.16023 13.6139V12.32C5.23063 12.32 4.48023 11.5696 4.48023 10.64V8.39999C4.48023 7.47039 5.23063 6.71999 6.16023 6.71999ZM16.9905 6.75936C17.0941 6.89237 17.1947 7.03223 17.2913 7.17827C17.3879 7.32431 17.4806 7.47581 17.5702 7.63436C17.6598 7.79292 17.7458 7.9582 17.8284 8.12874C17.911 8.29928 17.9901 8.47612 18.0657 8.65812C18.2505 8.57412 18.4307 8.48386 18.6071 8.38796C18.7835 8.29206 18.9565 8.18982 19.1245 8.08062C18.9663 7.94342 18.8029 7.81221 18.6345 7.68796C18.1291 7.31521 17.5785 7.00297 16.9905 6.75936ZM19.9251 8.88124C19.6955 9.04084 19.4573 9.19147 19.2109 9.33077C18.9645 9.47007 18.7095 9.59817 18.4463 9.71577C18.6115 10.273 18.745 10.8668 18.8423 11.4898C18.8909 11.8013 18.93 12.1204 18.9604 12.4458C18.9908 12.7711 19.0126 13.1026 19.0238 13.44H21.8118C21.7964 13.223 21.7723 13.0086 21.7396 12.7969C21.7069 12.5851 21.6665 12.3759 21.6171 12.1701C21.5678 11.9643 21.5096 11.7623 21.4443 11.5631C21.379 11.364 21.306 11.1676 21.2255 10.9758C21.145 10.784 21.057 10.5962 20.962 10.4125C20.8669 10.2287 20.7646 10.0494 20.6557 9.87437C20.5469 9.69937 20.4321 9.52913 20.3101 9.36358C20.1881 9.19803 20.0595 9.03664 19.9251 8.88124ZM17.3887 10.1248C17.1647 10.1962 16.9367 10.2602 16.7062 10.3162C16.4756 10.3723 16.2424 10.4208 16.0062 10.4617C15.7699 10.5027 15.5308 10.5363 15.2898 10.5623C15.0487 10.5883 14.8052 10.6069 14.5602 10.6181V13.44H17.9038C17.8926 13.1418 17.8724 12.8473 17.8448 12.5584C17.8171 12.2696 17.7821 11.9861 17.7387 11.7086C17.6953 11.431 17.644 11.1603 17.5855 10.8959C17.5271 10.6316 17.4615 10.374 17.3887 10.1248ZM10.0966 14.56C10.1414 15.7528 10.3206 16.8783 10.6118 17.8751C10.8358 17.8037 11.0637 17.7398 11.2943 17.6837C11.5249 17.6277 11.758 17.5792 11.9943 17.5383C12.4668 17.4564 12.9502 17.4043 13.4402 17.3819V14.56H10.0966ZM17.3602 15.68H21.8402C22.7698 15.68 23.5202 16.4304 23.5202 17.36V19.6C23.5202 20.5296 22.7698 21.28 21.8402 21.28V22.5739C21.8402 22.9211 21.4205 23.1004 21.1741 22.8484L19.6002 21.28H17.3602C16.4306 21.28 15.6802 20.5296 15.6802 19.6V17.36C15.6802 16.4304 16.4306 15.68 17.3602 15.68ZM13.4402 18.5019C13.226 18.5131 13.0139 18.5307 12.8037 18.5544C12.5934 18.5781 12.3846 18.608 12.1791 18.6441C11.9737 18.6801 11.7708 18.7227 11.571 18.7709C11.3713 18.8191 11.1747 18.8737 10.9815 18.9339C11.1341 19.3049 11.3038 19.6473 11.4868 19.9576C11.7612 20.4232 12.0661 20.8151 12.3946 21.1181C12.6136 21.3201 12.8437 21.4834 13.0804 21.6016C13.1987 21.6606 13.3184 21.7084 13.4402 21.7448V18.5019ZM9.93477 19.3419C9.74997 19.4259 9.56827 19.5161 9.39117 19.612C9.21407 19.7079 9.04122 19.8102 8.87602 19.9194C9.35062 20.331 9.8726 20.6861 10.4346 20.9748C10.6219 21.0711 10.8139 21.1594 11.0099 21.2406C10.9063 21.1076 10.8057 20.9677 10.7091 20.8217C10.6125 20.6757 10.5198 20.5242 10.4302 20.3656C10.3406 20.2071 10.2547 20.0418 10.1721 19.8712C10.0895 19.7007 10.0104 19.5239 9.93477 19.3419Z" fill="#FF0000"/>
</svg>
