<svg xmlns="http://www.w3.org/2000/svg" fill="currentColor" viewBox="0 0 20 15">
<path d="M13.381 7.57443c-.017-.01625-.0278-.03822-.0306-.06197-.0028-.02375.0027-.04775.0154-.06771l6.4061-6.06721c.1089-.11284.1831-.25648.2131-.412817.0301-.156334.0147-.318367-.0442-.465679-.0589-.147313-.1587-.273312-.2867-.362119-.1281-.0888073-.2787-.13644872-.433-.13692023h-5.4364c-.2311-.00054957-.4601.04635963-.6735.13800423-.2135.091645-.4072.2262-.57.395854L9.72466 3.44738 6.77723.403678c-.12288-.127834-.269-.229306-.42996-.298583C6.18632.0358191 6.0137.00010443 5.83935.00000477H.403437C.335164.0002704.268492.0213961.211807.0607246.155122.100053.110955.155828.0848634.221033.0587713.286239.0519187.357963.0651678.427183.0784168.496404.111176.560029.159324.610056L6.41936 7.08346c.09905.10321.15462.24268.15462.38803 0 .14536-.05557.28483-.15462.38803L.100737 14.3899c-.0481485.0501-.0809074.1137-.09415645.1829-.01324903.0692-.00639647.141.01969565.2062.0260921.0652.0702585.121.1269438.1603.056685.0393.123357.0604.19163.0607h5.43738c.17428-.0001.34682-.0358.50769-.1051.16087-.0693.30691-.1708.4297-.2986l2.97428-3.0739 2.8473 2.9427c.1629.1693.3567.3035.5702.3948.2135.0913.4423.1379.6733.1371h5.4364c.1553-.0011.3068-.0499.4351-.1403.1283-.0905.2276-.2184.2853-.3674.0576-.149.071-.3125.0383-.4694-.0326-.1569-.1098-.3002-.2216-.4116L13.381 7.57443zm-.2256-6.40831c.0822-.08622.1802-.1546.2882-.201128.1081-.046532.2241-.070277.3411-.069842h5.2109l-6.1268 5.8028-2.5324-2.61731 2.819-2.91452zm.6293 12.93268c-.1167.0008-.2324-.0223-.3405-.068-.108-.0458-.2062-.1132-.2888-.1984l-2.8473-2.9453 2.531-2.61179 6.1565 5.82599-5.2109-.0025z"/>
</svg>