<svg width="163" height="26" fill="none" xmlns="http://www.w3.org/2000/svg"><path d="M.353 0h6.679l5.337 7.694L17.67 0h6.68l-8.66 12.507 9.013 13.019h-6.678L12.37 17.32l-5.69 8.206H0l9.011-13.019L.353 0zM28.31 25.526L38.735 0h4.63l10.391 25.526h-5.83l-1.696-4.303H35.873l-1.697 4.303h-5.867zM41.068 8.205l-3.11 7.84h6.22l-3.11-7.84zm17.776 17.32V0h4.984l11.767 15.643V0h5.408v25.526H76.02L64.254 9.955v15.57h-5.41zm48.101 0H87.048v-4.448l11.98-15.753H87.154V0h19.685v4.449L94.857 20.202h12.088v5.324zm5.939 0V0h5.619v9.955h10.709V0h5.584v25.526h-5.585V15.278h-10.709v10.248h-5.618zM157.414 0h5.584v15.206a10.557 10.557 0 01-.781 4.192 10.286 10.286 0 01-2.364 3.502c-2.086 2.08-4.701 3.1-7.81 3.1-3.108 0-5.725-1.021-7.81-3.1a10.275 10.275 0 01-2.365-3.502 10.557 10.557 0 01-.781-4.192V0h5.584v15.17a5.493 5.493 0 00.364 2.131 5.356 5.356 0 001.156 1.807 5.232 5.232 0 001.769 1.192c.662.27 1.37.398 2.082.376a5.11 5.11 0 002.066-.385 5.231 5.231 0 001.755-1.189 5.423 5.423 0 001.164-1.803c.267-.676.398-1.4.387-2.13V0z" fill="#fff"/></svg>