<svg class="fill-current" viewBox="0 0 26 26">
<path d="M13.129 8.60472C13.1008 8.6268 13.0628 8.64091 13.0216 8.64451C12.9804 8.64811 12.9388 8.64099 12.9042 8.6244L2.38774 0.296574C2.19214 0.154978 1.94317 0.0585632 1.67219 0.0194817C1.40121 -0.0195999 1.12035 0.000400543 0.865009 0.0769615C0.609667 0.153522 0.391269 0.28322 0.237337 0.449707C0.083404 0.616194 0.000825552 0.812019 8.27411e-06 1.01251L8.27411e-06 8.07983C-0.000944314 8.38033 0.0803649 8.67797 0.239216 8.95547C0.398067 9.23298 0.631295 9.48483 0.925362 9.6964L5.97545 13.3579L0.699709 17.1896C0.478129 17.3493 0.302244 17.5393 0.182165 17.7485C0.0620864 17.9578 0.000181018 18.1822 8.27411e-06 18.4088L8.27411e-06 25.4755C0.000468668 25.5643 0.0370865 25.651 0.105256 25.7247C0.173426 25.7983 0.270102 25.8558 0.383125 25.8897C0.496147 25.9236 0.620469 25.9325 0.740451 25.9153C0.860433 25.8981 0.970717 25.8555 1.05743 25.7929L12.278 17.6548C12.4569 17.5261 12.6986 17.4538 12.9506 17.4538C13.2025 17.4538 13.4443 17.5261 13.6232 17.6548L24.9426 25.869C25.0293 25.9316 25.1396 25.9742 25.2596 25.9914C25.3795 26.0087 25.5039 25.9998 25.6169 25.9658C25.7299 25.9319 25.8266 25.8745 25.8948 25.8008C25.9629 25.7271 25.9995 25.6404 26 25.5517V18.4831C25.9998 18.2565 25.9379 18.0322 25.8178 17.8231C25.6977 17.614 25.5219 17.4241 25.3003 17.2645L19.9721 13.3979L25.0729 9.6964C25.3663 9.48462 25.5989 9.23268 25.7572 8.95518C25.9154 8.67768 25.9962 8.38015 25.9948 8.07983L25.9948 1.01251C25.993 0.810627 25.9083 0.613716 25.7515 0.446922C25.5948 0.280128 25.3731 0.15102 25.1148 0.076088C24.8564 0.00115585 24.5732 -0.0161991 24.3012 0.0262394C24.0292 0.0686779 23.7808 0.168983 23.5878 0.314344L13.129 8.60472ZM2.02127 8.89795C1.87183 8.79116 1.75331 8.66378 1.67265 8.52329C1.592 8.3828 1.55084 8.23203 1.55159 8.07983L1.55159 1.30574L11.6098 9.27052L7.0731 12.5627L2.02127 8.89795ZM24.4379 8.07983C24.4394 8.23159 24.3993 8.38204 24.32 8.52248C24.2407 8.66291 24.1239 8.79054 23.9761 8.89795L18.8709 12.5995L14.3439 9.30923L24.4423 1.30574L24.4379 8.07983Z"/>
</svg>