<svg width="190" height="22" fill="currentColor" xmlns="http://www.w3.org/2000/svg"><path d="M27.3534 0h6.6784l5.3368 6.5104L44.6701 0h6.6798l-8.6591 10.5831 9.0125 11.0157h-6.6787l-5.6549-6.9433-5.6902 6.9433H27l9.011-11.0157L27.3534 0zm27.9558 21.5988L65.7352 0h4.63L80.756 21.5988h-5.8299l-1.6964-3.6413H62.8725l-1.6968 3.6413h-5.8665zM68.0675 6.94239l-3.11 6.63351h6.2203l-3.1103-6.63351zm17.777 14.65641V0h4.9834l11.7671 13.2366V0h5.408v21.5988h-4.982L91.2536 8.42311V21.5988h-5.4091zm48.1005 0h-19.897v-3.7642l11.981-13.32929h-11.876V0h19.685v3.76448L121.857 17.0938h12.088v4.505zm5.939 0V0h5.619v8.42343h10.709V0h5.584v21.5988h-5.585v-8.6713h-10.709v8.6713h-5.618zM184.414 0h5.584v12.8668c.027 1.217-.239 2.4254-.781 3.5469-.542 1.1215-1.347 2.1312-2.364 2.9635-2.086 1.7594-4.701 2.6228-7.81 2.6228-3.108 0-5.725-.864-7.81-2.6228-1.018-.8323-1.823-1.842-2.365-2.9635-.542-1.1215-.808-2.3299-.781-3.5469V0h5.584v12.8357c-.021.6167.103 1.2307.364 1.8039.262.5732.655 1.0934 1.156 1.5286.505.4375 1.107.7807 1.769 1.0088.662.2281 1.37.3363 2.082.318.707.0139 1.409-.0968 2.066-.3256.657-.2288 1.254-.571 1.755-1.0061.502-.435.898-.954 1.164-1.5257.267-.5718.398-1.1847.387-1.8019V0zM9.08931 7.95711c-.0195.01529-.04585.02505-.07436.02755-.0285.00249-.0573-.00244-.08125-.01392L1.65305 2.20532c-.13541-.09803-.30778-.16478-.49538-.19183-.187603-.02706-.382043-.01321-.558818.03979-.176775.053-.327973.14279-.434542.25805-.1065688.11526-.16373846.25084-.16430427.38964v4.89276c-.00065949.20803.05563147.41409.16560527.60621.109974.19212.271439.36648.475024.51295L4.13685 11.2478.484414 13.9005c-.153402.1106-.275168.2421-.358299.387-.0831321.1448-.12598968.3002-.12610927.4571v4.8923c.00031873.0615.02566957.1215.07286377.1725.0471945.051.1141245.0907.1923705.1142.078247.0235.164316.0297.24738.0177.083064-.0119.159415-.0414.219447-.0847l7.768083-5.634c.12385-.0892.29121-.1392.46564-.1392.17443 0 .3418.05.46564.1392l7.83647 5.6867c.0601.0434.1364.0729.2195.0848.083.0119.1691.0057.2474-.0177.0782-.0235.1451-.0633.1923-.1143.0472-.051.0726-.111.0729-.1725V14.796c-.0001-.1569-.043-.3121-.1261-.4569-.0832-.1448-.2049-.2762-.3583-.3868l-3.6888-2.6768 3.5314-2.56261c.2031-.14662.3641-.32104.4737-.51315.1095-.19211.1654-.3981.1645-.60601V2.70097c-.0013-.13977-.0599-.27609-.1684-.39156-.1085-.11547-.262-.20486-.4408-.25673-.1789-.05188-.375-.06389-.5633-.03451-.1883.02938-.3602.09882-.4939.19945L9.08931 7.95711zm-7.68997.20301c-.10346-.07393-.18551-.16212-.24135-.25938-.05584-.09727-.08433-.20165-.08381-.30701V2.90397l6.96337 5.51408-3.14079 2.27915-3.49742-2.53708zm15.51926-.56639c.001.10506-.0268.20922-.0817.30645-.0548.09722-.1358.18558-.238.25994l-3.5344 2.56258-3.13413-2.27785 6.99123-5.54088-.003 4.68976z"/></svg>