<svg xmlns="http://www.w3.org/2000/svg" data-name="Layer 1" viewBox="0 0 800 800">
  <style>
    path { fill: #000000; }
    @media (prefers-color-scheme: dark) {
      path { fill: #ffffff; }
    }
  </style>
<path d="M506.65 402.28c-1.23-1.23-1.23-3.22-.47-4l202.09-185.16a24.62 24.62 0 00-17.39-42H519.39a55.07 55.07 0 00-39.23 16.3l-88.86 88.89-93-93a41.79 41.79 0 00-29.58-12.25H97.25a10.92 10.92 0 00-7.74 18.62L287 387.29a16.82 16.82 0 010 23.71L87.7 610.3a10.92 10.92 0 007.74 18.62h171.49a41.79 41.79 0 0029.58-12.25l93.83-93.83 89.82 89.82a55 55 0 0039.23 16.23h171.49a24.51 24.51 0 0022.73-15.2c3.84-9.18 1.71-19.72-5.75-27.18zm-7.12-195.53a27.72 27.72 0 0119.86-8.28h164.37L490.5 375.58l-79.9-79.9zm19.86 394.75a27.84 27.84 0 01-19.86-8.15l-89.82-89.89 79.83-79.82L683.76 601.5z"/>
</svg>