<?xml version="1.0" encoding="utf-8"?>
<svg width="358" height="358" viewBox="0 0 358 358" fill="none" version="1.2" baseProfile="tiny-ps" xmlns="http://www.w3.org/2000/svg">
  <title>xanzhu</title>
  <rect width="358" height="358" fill="#0F0F0F" />
  <path d="M179.487 144.859C179.272 145.028 178.98 145.136 178.665 145.164C178.35 145.191 178.032 145.137 177.767 145.01L97.2754 81.2699C95.7783 80.1862 93.8727 79.4482 91.7987 79.1491C89.7246 78.85 87.575 79.0031 85.6206 79.5891C83.6663 80.175 81.9947 81.1677 80.8165 82.442C79.6384 83.7162 79.0063 85.2151 79.0001 86.7496V140.842C78.9928 143.142 79.6151 145.42 80.8309 147.544C82.0467 149.668 83.8318 151.595 86.0826 153.215L124.735 181.24L84.3555 210.567C82.6595 211.789 81.3133 213.243 80.3943 214.845C79.4752 216.446 79.0014 218.164 79.0001 219.898V273.986C79.0036 274.665 79.2839 275.329 79.8056 275.893C80.3274 276.457 81.0673 276.896 81.9324 277.156C82.7974 277.415 83.749 277.483 84.6673 277.352C85.5856 277.22 86.4297 276.894 87.0934 276.415L172.974 214.127C174.343 213.142 176.193 212.589 178.122 212.589C180.05 212.589 181.901 213.142 183.27 214.127L269.907 276.998C270.57 277.477 271.414 277.803 272.333 277.935C273.251 278.066 274.203 277.998 275.068 277.739C275.933 277.479 276.673 277.039 277.194 276.475C277.716 275.911 277.996 275.248 278 274.569V220.467C277.999 218.733 277.525 217.016 276.606 215.415C275.686 213.815 274.34 212.362 272.645 211.14L231.863 181.546L270.904 153.215C273.15 151.594 274.93 149.665 276.141 147.542C277.353 145.418 277.971 143.14 277.96 140.842V86.7496C277.946 85.2044 277.298 83.6973 276.098 82.4207C274.899 81.1441 273.202 80.1559 271.225 79.5824C269.247 79.0089 267.079 78.876 264.998 79.2008C262.916 79.5257 261.015 80.2934 259.537 81.4059L179.487 144.859ZM94.4705 147.104C93.3267 146.286 92.4195 145.311 91.8022 144.236C91.1849 143.161 90.8699 142.007 90.8757 140.842V88.9939L167.86 149.955L133.136 175.153L94.4705 147.104ZM266.044 140.842C266.055 142.003 265.748 143.155 265.142 144.23C264.535 145.305 263.64 146.281 262.51 147.104L223.435 175.435L188.786 150.251L266.078 88.9939L266.044 140.842Z" fill="#FDFDFD" />
</svg>