<?xml version="1.0" encoding="utf-8"?>
<svg width="349" height="349" viewBox="0 0 349 349" fill="none" version="1.2" baseProfile="tiny-ps" xmlns="http://www.w3.org/2000/svg">
  <title>xanzhu</title>
  <circle cx="174.5" cy="174.5" r="174.5" fill="#0F0F0F" />
  <path d="M175.348 145.593C175.163 145.738 174.913 145.831 174.642 145.854C174.371 145.878 174.098 145.831 173.87 145.722L104.704 90.9505C103.418 90.0193 101.78 89.3852 99.9978 89.1281C98.2156 88.8711 96.3685 89.0026 94.6891 89.5062C93.0097 90.0097 91.5733 90.8627 90.5609 91.9577C89.5485 93.0527 89.0054 94.3406 89.0001 95.6592V142.14C88.9938 144.117 89.5286 146.074 90.5733 147.899C91.6181 149.725 93.152 151.381 95.086 152.772L128.3 176.854L93.6019 202.055C92.1446 203.105 90.9878 204.355 90.1981 205.731C89.4083 207.107 89.0012 208.583 89.0001 210.074V256.551C89.0031 257.134 89.2439 257.704 89.6923 258.189C90.1406 258.674 90.7764 259.051 91.5198 259.274C92.2631 259.498 93.0808 259.556 93.8699 259.443C94.659 259.33 95.3843 259.049 95.9546 258.638L169.751 205.114C170.928 204.268 172.518 203.792 174.175 203.792C175.832 203.792 177.422 204.268 178.599 205.114L253.045 259.139C253.616 259.55 254.341 259.83 255.13 259.944C255.919 260.057 256.737 259.998 257.48 259.775C258.224 259.552 258.859 259.175 259.308 258.69C259.756 258.205 259.997 257.635 260 257.052V210.562C259.999 209.072 259.591 207.597 258.802 206.221C258.012 204.846 256.855 203.597 255.398 202.547L220.355 177.117L253.903 152.772C255.832 151.38 257.362 149.723 258.403 147.898C259.444 146.072 259.975 144.116 259.965 142.14V95.6592C259.954 94.3314 259.397 93.0364 258.366 91.9394C257.335 90.8424 255.877 89.9932 254.178 89.5004C252.479 89.0076 250.616 88.8935 248.827 89.1726C247.038 89.4517 245.405 90.1114 244.135 91.0674L175.348 145.593ZM102.294 147.521C101.311 146.819 100.531 145.981 100.001 145.057C99.4704 144.133 99.1997 143.141 99.2047 142.14L99.2047 97.5877L165.357 149.971L135.519 171.624L102.294 147.521ZM249.726 142.14C249.736 143.139 249.472 144.128 248.951 145.052C248.429 145.975 247.661 146.815 246.689 147.521L213.113 171.866L183.339 150.226L249.755 97.5877L249.726 142.14Z" fill="#FDFDFD" />
</svg>